# Blender v2.80 (sub 75) OBJ File: ''
# www.blender.org
mtllib EmptyRoom.mtl
o Cube.004_Cube.010
v 2.197066 2.449577 1.882480
v 2.197010 0.000952 1.899910
v 2.170386 -0.025906 -1.873332
v 2.170443 2.422719 -1.890761
v 2.099695 2.449584 1.883168
v 2.073073 2.422726 -1.890075
v 2.073016 -0.025898 -1.872645
v 2.099639 0.000959 1.900596
vt 1.000000 0.000000
vt 0.000000 1.000000
vt 0.000000 0.000000
vt 1.000000 0.000000
vt 0.000000 1.000000
vt 0.000000 0.000000
vt 1.000000 1.000000
vt 0.000000 1.000000
vt 1.000000 0.000000
vt 0.000000 1.000000
vt 0.000000 0.000000
vt 0.000000 0.000000
vt 1.000000 1.000000
vt 1.000000 0.000000
vt 0.000000 1.000000
vt 1.000000 1.000000
vt 1.000000 1.000000
vt 1.000000 0.000000
vt 1.000000 0.000000
vt 1.000000 1.000000
vn 1.0000 -0.0001 -0.0071
vn -1.0000 0.0001 0.0071
vn 0.0071 0.0071 0.9999
vn 0.0070 0.0071 0.9999
vn -0.0000 -1.0000 0.0071
vn -0.0071 -0.0071 -0.9999
vn -0.0070 -0.0071 -0.9999
vn 0.0000 1.0000 -0.0071
usemtl Material.010
s 1
f 2/1/1 4/2/1 1/3/1
f 6/4/2 8/5/2 5/6/2
f 1/3/3 8/7/4 2/8/4
f 8/9/5 3/10/5 2/11/5
f 3/12/6 6/13/7 4/2/7
f 1/14/8 6/15/8 5/6/8
f 2/1/1 3/16/1 4/2/1
f 6/4/2 7/17/2 8/5/2
f 1/3/3 5/18/3 8/7/4
f 8/9/5 7/17/5 3/10/5
f 3/12/6 7/19/6 6/13/7
f 1/14/8 4/20/8 6/15/8
o Cube.001_Cube.009
v 2.181445 0.039923 1.956784
v 2.169818 2.442020 1.912431
v -2.232166 2.420616 1.907177
v -2.220538 0.018518 1.951531
v 2.181571 0.038127 1.859428
v -2.220413 0.016721 1.854175
v -2.232042 2.418819 1.809821
v 2.169941 2.440224 1.815074
vt 1.000000 0.000000
vt 0.000000 1.000000
vt 0.000000 0.000000
vt 1.000000 0.000000
vt 0.000000 1.000000
vt 0.000000 0.000000
vt 1.000000 0.000000
vt 0.000000 1.000000
vt 1.000000 0.000000
vt 0.000000 1.000000
vt 0.000000 0.000000
vt 1.000000 0.000000
vt 0.000000 0.000000
vt 1.000000 0.000000
vt 0.000000 1.000000
vt 1.000000 1.000000
vt 1.000000 1.000000
vt 1.000000 1.000000
vt 1.000000 1.000000
vt 1.000000 1.000000
vn -0.0013 0.0185 0.9998
vn 0.0013 -0.0185 -0.9998
vn 1.0000 0.0049 0.0012
vn -0.0048 0.9998 -0.0185
vn -1.0000 -0.0049 -0.0012
vn 0.0048 -0.9998 0.0185
usemtl Material.009
s 1
f 10/21/9 12/22/9 9/23/9
f 14/24/10 16/25/10 13/26/10
f 13/27/11 10/28/11 9/23/11
f 16/29/12 11/30/12 10/31/12
f 15/32/13 12/22/13 11/33/13
f 9/34/14 14/35/14 13/26/14
f 10/21/9 11/36/9 12/22/9
f 14/24/10 15/37/10 16/25/10
f 13/27/11 16/38/11 10/28/11
f 16/29/12 15/37/12 11/30/12
f 15/32/13 14/39/13 12/22/13
f 9/34/14 12/40/14 14/35/14
o Cube.003
v -2.242168 2.449576 -1.872971
v -2.242011 0.000952 -1.890400
v -2.237094 -0.025905 1.882933
v -2.237251 2.422720 1.900361
v -2.144796 2.449583 -1.873099
v -2.139878 2.422726 1.900235
v -2.139721 -0.025898 1.882807
v -2.144639 0.000958 -1.890525
vt 0.000000 0.000000
vt 1.000000 1.000000
vt 0.000000 1.000000
vt 1.000000 0.000000
vt 0.000000 1.000000
vt 0.000000 0.000000
vt 1.000000 0.000000
vt 0.000000 1.000000
vt 1.000000 0.000000
vt 0.000000 1.000000
vt 0.000000 0.000000
vt 0.000000 0.000000
vt 1.000000 1.000000
vt 1.000000 0.000000
vt 0.000000 1.000000
vt 1.000000 0.000000
vt 1.000000 1.000000
vt 1.000000 1.000000
vt 1.000000 0.000000
vt 1.000000 1.000000
vn -1.0000 -0.0001 0.0013
vn 1.0000 0.0001 -0.0013
vn -0.0013 0.0071 -1.0000
vn 0.0001 -1.0000 -0.0071
vn 0.0013 -0.0071 1.0000
vn -0.0001 1.0000 0.0071
usemtl Material.004
s 1
f 17/41/15 19/42/15 20/43/15
f 22/44/16 24/45/16 21/46/16
f 21/47/17 18/48/17 17/41/17
f 24/49/18 19/50/18 18/51/18
f 19/52/19 22/53/19 20/43/19
f 17/54/20 22/55/20 21/46/20
f 17/41/15 18/56/15 19/42/15
f 22/44/16 23/57/16 24/45/16
f 21/47/17 24/58/17 18/48/17
f 24/49/18 23/57/18 19/50/18
f 19/52/19 23/59/19 22/53/19
f 17/54/20 20/60/20 22/55/20
o Cube.002
v -2.231628 0.040055 -2.013194
v -2.219724 2.442355 -1.981732
v 2.182030 2.419956 -1.936921
v 2.170125 0.017657 -1.968382
v -2.232626 0.038786 -1.915834
v 2.169128 0.016387 -1.871022
v 2.181033 2.418686 -1.839561
v -2.220720 2.441085 -1.884373
vt 1.000000 0.000000
vt 0.000000 1.000000
vt 0.000000 0.000000
vt 1.000000 0.000000
vt 0.000000 1.000000
vt 0.000000 0.000000
vt 1.000000 0.000000
vt 0.000000 1.000000
vt 1.000000 0.000000
vt 0.000000 1.000000
vt 0.000000 0.000000
vt 0.000000 0.000000
vt 1.000000 1.000000
vt 1.000000 0.000000
vt 0.000000 1.000000
vt 1.000000 1.000000
vt 1.000000 1.000000
vt 1.000000 1.000000
vt 1.000000 0.000000
vt 1.000000 1.000000
vn 0.0102 0.0130 -0.9999
vn -0.0102 -0.0130 0.9999
vn -0.9999 0.0051 -0.0102
vn 0.0050 0.9999 0.0131
vn 0.9999 -0.0051 0.0102
vn -0.0050 -0.9999 -0.0131
usemtl Material.003
s 1
f 26/61/21 28/62/21 25/63/21
f 30/64/22 32/65/22 29/66/22
f 29/67/23 26/68/23 25/63/23
f 32/69/24 27/70/24 26/71/24
f 27/72/25 30/73/25 28/62/25
f 25/74/26 30/75/26 29/66/26
f 26/61/21 27/76/21 28/62/21
f 30/64/22 31/77/22 32/65/22
f 29/67/23 32/78/23 26/68/23
f 32/69/24 31/77/24 27/70/24
f 27/72/25 31/79/25 30/73/25
f 25/74/26 28/80/26 30/75/26
o Cube.001
v 2.152161 -0.048679 -1.923999
v 2.152161 -0.048679 1.923999
v -2.152161 -0.048679 1.923999
v -2.152160 -0.048679 -1.924000
v 2.152162 0.048679 -1.923998
v -2.152161 0.048679 -1.923999
v -2.152162 0.048679 1.923998
v 2.152159 0.048679 1.924000
vt 1.000000 0.000000
vt 0.000000 1.000000
vt 0.000000 0.000000
vt 1.000000 0.000000
vt 0.000000 1.000000
vt 0.000000 0.000000
vt 1.000000 0.000000
vt 0.000000 1.000000
vt 1.000000 0.000000
vt 0.000000 1.000000
vt 0.000000 0.000000
vt 1.000000 0.000000
vt 0.000000 0.000000
vt 1.000000 0.000000
vt 0.000000 1.000000
vt 1.000000 1.000000
vt 1.000000 1.000000
vt 1.000000 1.000000
vt 1.000000 1.000000
vt 1.000000 1.000000
vn 0.0000 -1.0000 -0.0000
vn -0.0000 1.0000 0.0000
vn 1.0000 -0.0000 0.0000
vn -0.0000 -0.0000 1.0000
vn -1.0000 -0.0000 -0.0000
vn 0.0000 0.0000 -1.0000
usemtl Material.002
s 1
f 34/81/27 36/82/27 33/83/27
f 38/84/28 40/85/28 37/86/28
f 37/87/29 34/88/29 33/83/29
f 40/89/30 35/90/30 34/91/30
f 39/92/31 36/82/31 35/93/31
f 33/94/32 38/95/32 37/86/32
f 34/81/27 35/96/27 36/82/27
f 38/84/28 39/97/28 40/85/28
f 37/87/29 40/98/29 34/88/29
f 40/89/30 39/97/30 35/90/30
f 39/92/31 38/99/31 36/82/31
f 33/94/32 36/100/32 38/95/32
